<svg width="12" height="12" viewBox="0 0 12 12" fill="none" xmlns="http://www.w3.org/2000/svg">
<path d="M0.88274 0.8393C0.938756 0.791773 1.0075 0.761745 1.08043 0.752945C1.15337 0.744145 1.22728 0.75696 1.29299 0.7898L11.043 5.6648C11.1052 5.69598 11.1575 5.74385 11.1941 5.80305C11.2306 5.86226 11.25 5.93047 11.25 6.00005C11.25 6.06963 11.2306 6.13784 11.1941 6.19705C11.1575 6.25625 11.1052 6.30412 11.043 6.3353L1.29299 11.2103C1.22732 11.2432 1.15343 11.2561 1.08048 11.2474C1.00754 11.2387 0.938759 11.2088 0.88268 11.1613C0.826601 11.1139 0.785694 11.051 0.765038 10.9805C0.744382 10.91 0.744887 10.835 0.76649 10.7648L2.23274 6.00005L0.76649 1.2353C0.745011 1.16516 0.744575 1.09026 0.765238 1.01987C0.785901 0.949483 0.826755 0.886702 0.88274 0.8393ZM2.90174 6.37505L1.74149 10.1476L10.0365 6.00005L1.74149 1.85255L2.90174 5.62505H7.12499C7.22445 5.62505 7.31983 5.66456 7.39016 5.73489C7.46048 5.80521 7.49999 5.90059 7.49999 6.00005C7.49999 6.09951 7.46048 6.19489 7.39016 6.26522C7.31983 6.33554 7.22445 6.37505 7.12499 6.37505H2.90174Z" fill="black"/>
<path d="M2.90174 6.37505L1.74149 10.1476L10.0365 6.00005L1.74149 1.85255L2.90174 5.62505H7.12499C7.22445 5.62505 7.31983 5.66456 7.39016 5.73489C7.46048 5.80521 7.49999 5.90059 7.49999 6.00005C7.49999 6.09951 7.46048 6.19489 7.39016 6.26522C7.31983 6.33554 7.22445 6.37505 7.12499 6.37505H2.90174Z" fill="#CAFCE5"/>
</svg>
